<?xml version="1.0" encoding="utf-8"?>
<!-- Generator: Adobe Illustrator 24.3.0, SVG Export Plug-In . SVG Version: 6.00 Build 0)  -->
<svg version="1.1" id="Capa_1" xmlns="http://www.w3.org/2000/svg" xmlns:xlink="http://www.w3.org/1999/xlink" x="0px" y="0px"
	 viewBox="0 0 376.5 98.7" style="enable-background:new 0 0 376.5 98.7;" xml:space="preserve">
<style type="text/css">
	.st0{fill:#FFFFFF;}
</style>
<g>
	<g>
		<path class="st0" d="M75.1,45.7H53.4v11.9c0,2.5,0.2,4.1,0.5,4.8c0.4,0.7,1,1.1,2.1,1.1c1.3,0,2.1-0.5,2.5-1.4
			c0.4-1,0.6-2.8,0.6-5.5v-7.2h15.8v4.1c0,3.4-0.2,6-0.6,7.8C74,63,73,64.9,71.4,67c-1.6,2.1-3.6,3.6-6,4.7c-2.4,1-5.4,1.6-9.1,1.6
			c-3.5,0-6.6-0.5-9.4-1.5c-2.7-1-4.8-2.4-6.3-4.2c-1.5-1.8-2.5-3.7-3.1-5.9s-0.9-5.2-0.9-9.3v-16c0-4.8,0.6-8.6,1.9-11.4
			c1.3-2.8,3.4-4.9,6.4-6.4c3-1.5,6.3-2.2,10.2-2.2c4.7,0,8.6,0.9,11.6,2.7c3,1.8,5.2,4.1,6.4,7.1c1.2,2.9,1.8,7.1,1.8,12.4V45.7z
			 M58.3,36.8v-4c0-2.8-0.2-4.7-0.5-5.5C57.5,26.5,56.9,26,56,26c-1.2,0-1.9,0.4-2.2,1.1c-0.3,0.7-0.4,2.6-0.4,5.7v4H58.3z"/>
		<path class="st0" d="M99.6,17.3l-0.3,5.1c1.2-2,2.7-3.5,4.4-4.5c1.8-1,3.8-1.5,6.1-1.5c2.9,0,5.2,0.7,7,2c1.8,1.4,3,3.1,3.5,5.1
			c0.5,2.1,0.8,5.5,0.8,10.3v38.5h-16.7v-38c0-3.8-0.1-6.1-0.4-6.9c-0.2-0.8-0.9-1.2-2.1-1.2c-1.2,0-1.9,0.5-2.2,1.4
			c-0.3,1-0.5,3.5-0.5,7.6v37.1H82.6V17.3H99.6z"/>
		<path class="st0" d="M146.7,10v8.6h4.5v8.7h-4.5v29.4c0,3.6,0.2,5.6,0.6,6c0.4,0.4,1.9,0.6,4.7,0.6v8.9h-6.7
			c-3.8,0-6.5-0.2-8.2-0.5c-1.6-0.3-3.1-1-4.3-2.2c-1.2-1.1-2-2.5-2.3-3.9c-0.3-1.5-0.5-4.9-0.5-10.4V27.3h-3.6v-8.7h3.6V10H146.7z"
			/>
		<path class="st0" d="M172,38.6h-15.7v-3.7c0-4.2,0.5-7.5,1.5-9.8c1-2.3,2.9-4.3,5.9-6.1c3-1.8,6.8-2.6,11.5-2.6
			c5.7,0,9.9,1,12.8,3c2.9,2,4.6,4.5,5.2,7.4c0.6,2.9,0.9,8.9,0.9,18v27.6h-16.3v-4.9c-1,2-2.3,3.4-4,4.4s-3.5,1.5-5.8,1.5
			c-2.9,0-5.6-0.8-8-2.5c-2.4-1.6-3.7-5.2-3.7-10.8v-4.5c0-4.1,0.6-6.9,1.9-8.4c1.3-1.5,4.5-3.2,9.6-5.2c5.5-2.2,8.4-3.6,8.8-4.3
			c0.4-0.7,0.6-2.3,0.6-4.6c0-2.9-0.2-4.7-0.6-5.6c-0.4-0.9-1.1-1.3-2.1-1.3c-1.1,0-1.8,0.4-2.1,1.1c-0.3,0.7-0.4,2.6-0.4,5.7V38.6z
			 M177.2,46.1c-2.7,2-4.2,3.6-4.7,4.9c-0.4,1.3-0.6,3.2-0.6,5.7c0,2.8,0.2,4.7,0.6,5.5c0.4,0.8,1.1,1.2,2.2,1.2c1,0,1.7-0.3,2-1
			c0.3-0.6,0.5-2.4,0.5-5.1V46.1z"/>
		<path class="st0" d="M236,34.9h-14.8v-3c0-2.5-0.1-4.1-0.4-4.8c-0.3-0.7-1-1-2.2-1c-0.9,0-1.6,0.3-2.1,0.9
			c-0.5,0.6-0.7,1.6-0.7,2.8c0,1.7,0.1,2.9,0.4,3.7c0.2,0.8,0.9,1.6,2.1,2.6c1.2,0.9,3.6,2.3,7.2,4.1c4.9,2.4,8,4.6,9.6,6.7
			c1.5,2.1,2.3,5.1,2.3,9.1c0,4.5-0.6,7.8-1.7,10.1s-3.1,4-5.8,5.3c-2.7,1.2-6,1.8-9.8,1.8c-4.2,0-7.9-0.7-10.9-2s-5.1-3.1-6.2-5.4
			c-1.1-2.3-1.7-5.7-1.7-10.3v-2.6h14.8v3.5c0,3,0.2,4.9,0.6,5.8c0.4,0.9,1.1,1.3,2.2,1.3c1.2,0,2-0.3,2.5-0.9
			c0.5-0.6,0.7-1.8,0.7-3.7c0-2.6-0.3-4.3-0.9-4.9c-0.6-0.7-3.9-2.6-9.7-5.9c-4.9-2.8-7.9-5.3-9-7.5c-1.1-2.2-1.6-4.9-1.6-8
			c0-4.4,0.6-7.6,1.7-9.7c1.2-2.1,3.1-3.7,5.9-4.8c2.8-1.1,6-1.7,9.7-1.7c3.6,0,6.7,0.5,9.3,1.4c2.6,0.9,4.5,2.1,5.9,3.7
			c1.4,1.5,2.2,2.9,2.5,4.2c0.3,1.3,0.4,3.3,0.4,6.1V34.9z"/>
		<path class="st0" d="M280.8,38H265v-6.3c0-2.2-0.2-3.7-0.5-4.5s-1-1.2-2-1.2c-1,0-1.6,0.3-1.9,1c-0.3,0.7-0.5,2.2-0.5,4.6v25.9
			c0,2,0.2,3.4,0.7,4.4c0.5,1,1.2,1.5,2.2,1.5c1.1,0,1.9-0.5,2.3-1.5s0.6-3,0.6-5.8v-6.5h14.9c0,4.4-0.2,7.7-0.5,9.9
			c-0.3,2.2-1.2,4.4-2.8,6.7c-1.6,2.3-3.6,4-6.1,5.2s-5.6,1.8-9.3,1.8c-4.7,0-8.5-0.8-11.2-2.4c-2.8-1.6-4.7-3.9-5.9-6.8
			c-1.1-2.9-1.7-7-1.7-12.4V36c0-4.7,0.5-8.2,1.4-10.6c0.9-2.4,2.9-4.5,6-6.4c3.1-1.9,6.8-2.8,11.2-2.8c4.4,0,8.1,0.9,11.2,2.8
			c3.1,1.8,5.1,4.2,6.2,7C280.3,28.9,280.8,32.9,280.8,38z"/>
		<path class="st0" d="M302.8,38.6h-15.7v-3.7c0-4.2,0.5-7.5,1.5-9.8c1-2.3,2.9-4.3,5.9-6.1c3-1.8,6.8-2.6,11.5-2.6
			c5.7,0,9.9,1,12.8,3c2.9,2,4.6,4.5,5.2,7.4c0.6,2.9,0.9,8.9,0.9,18v27.6h-16.3v-4.9c-1,2-2.3,3.4-4,4.4s-3.5,1.5-5.8,1.5
			c-2.9,0-5.6-0.8-8-2.5c-2.4-1.6-3.7-5.2-3.7-10.8v-4.5c0-4.1,0.6-6.9,1.9-8.4c1.3-1.5,4.5-3.2,9.6-5.2c5.5-2.2,8.4-3.6,8.8-4.3
			s0.6-2.3,0.6-4.6c0-2.9-0.2-4.7-0.6-5.6c-0.4-0.9-1.1-1.3-2.1-1.3c-1.1,0-1.8,0.4-2.1,1.1c-0.3,0.7-0.4,2.6-0.4,5.7V38.6z
			 M308.1,46.1c-2.7,2-4.2,3.6-4.7,4.9c-0.4,1.3-0.6,3.2-0.6,5.7c0,2.8,0.2,4.7,0.6,5.5c0.4,0.8,1.1,1.2,2.2,1.2c1,0,1.7-0.3,2-1
			c0.3-0.6,0.5-2.4,0.5-5.1V46.1z"/>
		<path class="st0" d="M342.4,5.2v6c0,3.1-0.4,5.7-1.1,7.7c-0.7,2-2,3.7-3.9,5.1c-1.8,1.4-3.9,2.3-6.2,2.8v-4.8
			c1.7-0.9,2.6-2.2,2.8-3.7h-2.8V5.2H342.4z"/>
		<path class="st0" d="M366.7,10v8.6h4.5v8.7h-4.5v29.4c0,3.6,0.2,5.6,0.6,6c0.4,0.4,1.9,0.6,4.7,0.6v8.9h-6.7
			c-3.8,0-6.5-0.2-8.2-0.5c-1.6-0.3-3.1-1-4.3-2.2c-1.2-1.1-2-2.5-2.3-3.9c-0.3-1.5-0.5-4.9-0.5-10.4V27.3h-3.6v-8.7h3.6V10H366.7z"
			/>
	</g>
	<g>
		<path class="st0" d="M23.9,90.6c-0.8-2.3-1.6-4.4-2.3-6.5c-1.3-3.8-0.8-3.1-4.4-3.2c-2.4,0-4.7,0-7.1,0c-3.2,0-5.3-2.1-5.4-5.3
			c-0.1-3.7,0-7.5,0-11.2c0-3,2.2-5.1,5.1-5.1c3.8-0.1,7.6,0,11.5,0c2.8,0,4.9,2.1,5,4.9c0.1,2.3,0.1,4.7,0,7c0,1.4,0.5,2.2,1.9,2.8
			c2.7,1,5.4,2.1,8.1,3.3c1.3,0.6,1.4,0.8,0.4,1.8c-0.8,0.9-1.7,1.7-2.5,2.5c-0.7,0.7-0.8,1.3-0.1,2.1c1.8,2,3.5,4,5.3,6
			c0.7,0.8,0.8,1.4-0.1,2.2c-2.5,2.1-2.4,2.2-4.6-0.3c-1.4-1.6-2.9-3.2-4.2-4.9c-0.8-1-1.5-1-2.3-0.1c-0.9,1-2,2-3,3
			C24.8,89.9,24.4,90.2,23.9,90.6z M16.7,69.8c0.1-0.1,0.2-0.2,0.3-0.3c0.5,0.2,1.1,0.4,1.6,0.6c1.6,0.7,3.3,1.3,4.9,2
			c0.9,0.4,1.5,0.2,1.5-0.9c0-2,0.1-4.1,0-6.1c-0.2-2.8-2.1-4.5-4.9-4.5c-3.1,0-6.2,0-9.2,0c-2.6,0-4.6,1.9-4.7,4.4
			c-0.1,3.4-0.1,6.9,0,10.3c0.1,2.2,1.8,4.1,4,4.2c2.8,0.1,5.7,0.1,8.6,0c0.9,0,1.2-0.5,0.9-1.3c-0.3-0.9-0.6-1.7-0.9-2.6
			C18,73.7,17.3,71.7,16.7,69.8z"/>
		<path class="st0" d="M26.3,24.6c0,1.8,0,3.7,0,5.5c-0.1,2.9-2.2,5-5.1,5.1c-3.7,0.1-7.4,0.1-11.1,0c-3.3,0-5.4-2.2-5.4-5.5
			c0-3.6,0-7.2,0-10.8c0-3.2,2.1-5.3,5.3-5.4c3.7-0.1,7.5-0.1,11.2,0c3,0,5.1,2.2,5.1,5.2C26.3,20.7,26.3,22.7,26.3,24.6
			C26.3,24.6,26.3,24.6,26.3,24.6z M6.1,24.4C6.1,24.4,6.1,24.4,6.1,24.4c0,1.7-0.1,3.4,0,5.1c0.1,2.5,2,4.4,4.5,4.4
			c3.2,0.1,6.4,0.1,9.6,0c2.6-0.1,4.4-1.7,4.5-4.2c0.2-3.5,0.2-7.1,0-10.7c-0.1-2.4-2-4.1-4.4-4.1c-3.3-0.1-6.6-0.1-9.9,0
			c-2.6,0.1-4.4,2-4.5,4.6C6.1,21.1,6.1,22.7,6.1,24.4z"/>
		<path class="st0" d="M15.5,58c-1.9,0-3.9,0.1-5.8,0c-2.9-0.1-4.9-2.2-5-5.1c-0.1-3.8-0.1-7.6,0-11.5c0-2.7,2-4.9,4.7-5
			c4.1-0.1,8.2-0.1,12.2,0c2.7,0.1,4.6,2.2,4.7,4.9c0.1,3.9,0.1,7.7,0,11.6c0,2.9-2.1,4.9-5,5C19.3,58.1,17.4,58,15.5,58
			C15.5,58,15.5,58,15.5,58z M6.1,47.3c0,1.6,0,3.3,0,4.9c0.1,2.6,1.8,4.5,4.4,4.6c3.3,0.1,6.6,0.1,9.9,0c2.5-0.1,4.3-1.9,4.4-4.4
			c0.1-3.4,0.1-6.9,0-10.3c-0.1-2.6-2-4.4-4.7-4.4c-3.1-0.1-6.2-0.1-9.4,0c-2.7,0-4.6,2-4.7,4.7C6,44,6.1,45.6,6.1,47.3z"/>
		<path class="st0" d="M19.9,19.8c-0.7,1-1.2,1.8-1.8,2.5c-1,1.1-1,2.1,0,3.2c0.9,1,1.5,2.1,2.4,3.3c-1.2,0.5-2.2,0.5-2.9-0.5
			c-0.5-0.6-0.9-1.3-1.4-1.9c-0.4-0.6-0.9-0.5-1.3,0c-0.4,0.6-0.9,1.1-1.3,1.7c-0.7,1.1-1.6,1.2-3,0.7c0.8-1.1,1.4-2,2.1-2.9
			c1.4-1.9,1.4-2,0-3.9c-0.5-0.7-1-1.4-1.6-2.2c1.3-0.4,2.2-0.4,2.9,0.7c0.2,0.4,0.5,0.7,0.7,1.1c0.4,0.6,0.9,0.7,1.3,0
			c0.3-0.4,0.7-0.8,1-1.2C17.9,19.4,18.7,19.4,19.9,19.8z"/>
		<path class="st0" d="M19.9,42.9c-0.7,1-1.3,1.9-2,2.8c-0.7,0.9-0.7,1.6,0,2.5c0.9,1.1,1.7,2.3,2.6,3.6c-1.2,0.5-2.1,0.6-2.8-0.4
			c-0.5-0.6-1-1.2-1.4-1.9c-0.5-0.7-0.9-0.7-1.4,0c-0.4,0.5-0.8,1-1.2,1.6c-0.7,1-1.6,1.3-3,0.8c0.7-1,1.3-1.9,2-2.8
			c1.5-2.2,1.5-2.2-0.1-4.3c-0.4-0.6-0.8-1.2-1.3-1.8c1.4-0.7,2.1-0.5,2.9,0.6c0.2,0.3,0.3,0.5,0.5,0.8c0.6,0.9,1.1,1,1.8,0
			c0.3-0.4,0.6-0.8,0.8-1.2C18,42.3,18.8,42.4,19.9,42.9z"/>
	</g>
</g>
</svg>
